# xmcd CD Database Entry
#
# Track frame offsets:
# 150
# 2867
# 24423
# 46753
# 64787
# 80644
# 97340
# 127229
# 142826
# 163677
# 184588
#
# Disc length: 2691 seconds
#
# Revision: 1
# Processed by: cddbd v1.4b42PL1 Copyright (c) Steve Scherf et al.
# Submitted via: tcd 2.0b
#
DISCID=910a810b
DTITLE=Jack-e McAuley - Shadowboxing
DYEAR=1900
DGENRE=
TTITLE0=Introduction
TTITLE1=Shall We Dance
TTITLE2=St. George's Day
TTITLE3=Blind Willie Johnson (In My Soul)
TTITLE4=Reels
TTITLE5=Sing For Your Daddy
TTITLE6=The Tiger Bites
TTITLE7=The Auld Triangle
TTITLE8=Come On In My Kitchen/Rainwalk
TTITLE9=Chester Lane
TTITLE10=Jigs
EXTD=
EXTT0=
EXTT1=
EXTT2=
EXTT3=
EXTT4=
EXTT5=
EXTT6=
EXTT7=
EXTT8=
EXTT9=
EXTT10=
PLAYORDER=
